<svg width="93" height="23" viewBox="0 0 93 23" fill="none" xmlns="http://www.w3.org/2000/svg">
<path d="M90.0642 5.26552H89.6102V5.00856L90.7837 5.0107V5.26766H90.3297L90.3276 6.65953H90.0642V5.26552ZM90.9957 5.0107H91.409L91.7923 6.18201H91.7987L92.182 5.0107H92.5974L92.5952 6.65738H92.334L92.3361 5.33404H92.3319L91.88 6.65738H91.6959L91.2526 5.3319H91.2483L91.2462 6.65524H90.9957V5.0107ZM81.9764 4.94861C81.2698 4.94861 80.7387 5.41327 80.6466 6.08137C79.7537 5.16274 78.4518 4.65739 76.9571 4.65739C73.2783 4.6531 70.3918 7.54389 70.3875 11.2398C70.3875 11.3298 70.3897 11.4176 70.394 11.5054C71.7773 12.0492 72.758 13.3983 72.7558 14.9722C72.7558 15.3961 72.6809 15.803 72.5481 16.182C73.6938 17.1906 75.2184 17.7901 76.94 17.7923C78.4197 17.7944 79.8201 17.0707 80.6231 16.3083C80.6831 17.0364 81.2162 17.5332 81.9593 17.5353C82.8008 17.5353 83.3254 17.0128 83.3254 16.1692L83.3361 6.29764C83.3404 5.47751 82.8051 4.94861 81.9764 4.94861ZM76.925 14.8994C74.91 14.8972 73.2698 13.2548 73.2741 11.2355C73.2762 9.21841 74.9186 7.57816 76.9336 7.5803C78.9486 7.58244 80.5888 9.22484 80.5867 11.2441C80.5845 13.2612 78.9421 14.9015 76.925 14.8994ZM57.9572 4.92291C57.2505 4.92291 56.7195 5.38758 56.6274 6.05567C55.7345 5.13704 54.4325 4.63169 52.9379 4.63169C49.2591 4.62741 46.3747 7.5182 46.3704 11.2141C46.3661 14.9465 49.1841 17.7623 52.925 17.7666C54.4068 17.7687 55.8051 17.045 56.6081 16.2826C56.6681 17.0107 57.2013 17.5075 57.9443 17.5096C58.7858 17.5096 59.3105 16.9871 59.3105 16.1435L59.3212 6.27195C59.3212 5.45182 58.7858 4.92291 57.9572 4.92291ZM52.8137 14.8715C50.7987 14.8694 49.1584 13.227 49.1606 11.2077C49.1627 9.19058 50.8051 7.55032 52.8201 7.55246C54.8372 7.5546 56.4754 9.197 56.4732 11.2163C56.4732 13.2334 54.8308 14.8737 52.8137 14.8715ZM11.5931 0C10.7623 0 10.227 0.526766 10.227 1.34261L10.2227 6.01927C9.36617 5.08779 8.07923 4.57816 6.56959 4.57602C3.07281 4.57387 0.00428714 7.64882 4.48378e-06 11.1606C-0.00427817 14.6467 3.05996 17.7088 6.55461 17.7131C8.10493 17.7152 9.55674 16.9165 10.3255 16.1285C10.4754 16.985 10.9914 17.454 11.7944 17.454C12.4582 17.454 12.94 16.9443 12.9422 16.242L12.9593 1.34689C12.9593 0.541755 12.4111 0.00214133 11.5931 0ZM6.53105 14.8201C4.51606 14.818 2.87581 13.1756 2.87795 11.1563C2.88009 9.13918 4.52249 7.49893 6.53747 7.50107C8.55246 7.50321 10.1927 9.14561 10.1906 11.1649C10.1884 13.182 8.54604 14.8223 6.53105 14.8201ZM31.4561 4.89293C30.5824 4.89293 30.1328 5.29978 30.0193 6.20985C29.2056 5.38758 27.7709 4.60171 26.2377 4.60171C22.743 4.59743 19.6724 7.66381 19.6702 11.1606C19.6659 14.6595 22.728 17.7302 26.2248 17.7345C27.8051 17.7366 29.0535 17.2548 29.8544 16.3383C29.7773 18.985 28.4989 20.2698 25.9572 20.2677C25.1285 20.2677 24.591 20.803 24.5889 21.6317C24.5889 22.5011 25.1178 22.9979 26.0407 23C30.8844 23.0064 32.606 19.4818 32.6081 16.4625L32.6188 6.08351C32.6231 5.394 32.1327 4.89293 31.4561 4.89293ZM26.1692 14.8415C24.152 14.8394 22.5139 13.197 22.5161 11.1777C22.5182 9.1606 24.1606 7.52034 26.1756 7.52248C28.1906 7.52462 29.8308 9.16702 29.8287 11.1863C29.8265 13.2056 28.1841 14.8437 26.1692 14.8415ZM87.0749 4.86081C86.3083 4.86081 85.7302 5.43683 85.7302 6.20342L85.6852 16.2163C85.6852 17.0214 86.2355 17.5824 87.0278 17.5846C87.8693 17.5846 88.394 17.0621 88.3961 16.2206L88.4411 6.20771C88.4389 5.40257 87.8908 4.86081 87.0749 4.86081ZM16.4668 4.72591C15.7002 4.72591 15.1221 5.30193 15.1221 6.06852L15.1113 16.0921C15.1113 16.8972 15.6617 17.4604 16.454 17.4604C17.2955 17.4604 17.8201 16.9379 17.8201 16.0942L17.8308 6.07066C17.8308 5.26766 17.2826 4.72591 16.4668 4.72591ZM36.3726 4.78158C35.606 4.78158 35.0278 5.3576 35.0278 6.1242L35.0171 16.1135C35.0171 16.9186 35.5674 17.4818 36.3597 17.4818C37.2013 17.4818 37.7259 16.9593 37.7259 16.1156L37.7366 6.12634C37.7366 5.32334 37.1884 4.78158 36.3726 4.78158ZM44.7537 14.8458C43.8651 14.7709 43.3148 14.5203 43.3169 13.5011L43.3233 7.72805H44.0278C44.8073 7.72805 45.3726 7.16488 45.3726 6.38544C45.3726 5.5546 44.8479 5.01927 44.03 5.01713H43.3255L43.3297 1.40471C43.3297 0.561028 42.8073 0.0385439 41.9657 0.0364026C41.1756 0.0364026 40.621 0.59743 40.621 1.40043L40.6167 5.04711C39.9614 5.14561 39.5589 5.65096 39.5589 6.37901C39.5589 7.06424 39.9786 7.591 40.6145 7.71092L40.6081 13.5182C40.606 16.0385 41.9593 17.4861 44.3255 17.4904C45.304 17.4925 45.8908 17.0214 45.8908 16.2355C45.8908 15.4218 45.4775 14.9165 44.7537 14.8458ZM63.2634 0.0578157C62.4732 0.0578157 61.9186 0.610278 61.9186 1.40043L61.9015 16.1413C61.9015 16.9465 62.4518 17.5096 63.2441 17.5096C64.0856 17.5096 64.6102 16.9871 64.6124 16.1435L64.6295 1.40257C64.6274 0.573875 64.1049 0.059957 63.2634 0.0578157ZM71.1584 13.5375C71.1135 13.4689 71.0642 13.4026 71.0107 13.3405C70.8865 13.1906 70.7451 13.0578 70.591 12.9379C70.5374 12.8972 70.4818 12.8565 70.4239 12.8201C70.1392 12.6338 69.8158 12.5032 69.4668 12.4433C69.3276 12.4197 69.1841 12.4068 69.0385 12.4068C68.5974 12.4068 68.182 12.5182 67.8201 12.7152C67.7473 12.7537 67.6766 12.7966 67.6081 12.8437C66.9272 13.3041 66.4796 14.0814 66.4775 14.9657C66.4775 15.8501 66.9229 16.6295 67.6038 17.0899C67.6723 17.137 67.743 17.1799 67.8137 17.2184C68.1756 17.4154 68.591 17.5289 69.0321 17.5289C69.6509 17.5289 70.2184 17.3105 70.6595 16.9465C70.7858 16.8415 70.9015 16.7259 71.0064 16.5996C71.0599 16.5375 71.1092 16.4711 71.1541 16.4026C71.2462 16.2655 71.3254 16.122 71.3897 15.9679C71.5182 15.6617 71.591 15.3255 71.591 14.9722C71.591 14.6188 71.5203 14.2826 71.3918 13.9743C71.3297 13.818 71.2505 13.6724 71.1584 13.5375Z" fill="#2A2A2A"/>
<path d="M55.2464 10.6403C55.2892 10.8223 55.3128 11.0107 55.3128 11.2056C55.3128 11.3126 55.3063 11.4197 55.2935 11.5225C55.2807 11.6274 55.2614 11.7281 55.2357 11.8287C55.1843 12.0278 55.1094 12.2184 55.013 12.394C54.5911 13.1713 53.7667 13.7002 52.8203 13.7002C51.4434 13.7002 50.3278 12.5824 50.3278 11.2056C50.3278 11.0343 50.3449 10.8651 50.3792 10.7024C50.544 9.8908 51.1051 9.22056 51.8524 8.90579C52.15 8.77945 52.4777 8.70878 52.8224 8.70878C53.1672 8.70878 53.4948 8.77945 53.7924 8.90579C54.3513 9.14133 54.801 9.57816 55.0644 10.1199C55.1415 10.2848 55.2036 10.4582 55.2464 10.6403ZM6.53549 8.70878C5.15862 8.70878 4.04299 9.82656 4.04299 11.2034C4.04299 12.5803 5.15862 13.6981 6.53549 13.6981C7.91236 13.6981 9.03014 12.5803 9.03014 11.2034C9.03014 9.82656 7.91236 8.70878 6.53549 8.70878ZM77.8995 8.90579C77.8245 8.87367 77.7496 8.84583 77.6704 8.82227C77.5526 8.78587 77.4327 8.75803 77.3085 8.73876C77.1843 8.71949 77.058 8.70878 76.9295 8.70878C76.6725 8.70878 76.422 8.74733 76.1886 8.82013C76.1115 8.84369 76.0344 8.87367 75.9594 8.90364C75.2143 9.21842 74.6532 9.88865 74.4862 10.7002C74.4541 10.863 74.4348 11.03 74.4348 11.2034C74.4348 11.8929 74.7132 12.5161 75.165 12.9679C75.2785 13.0814 75.4027 13.1842 75.5333 13.272C75.7325 13.4069 75.9509 13.5139 76.1864 13.5867C76.422 13.6595 76.6704 13.6981 76.9273 13.6981C77.0558 13.6981 77.1843 13.6895 77.3063 13.6702C77.4305 13.651 77.5505 13.6231 77.6682 13.5867C77.9016 13.5139 78.1222 13.4069 78.3213 13.272C78.4541 13.182 78.5783 13.0814 78.6896 12.9679C79.1415 12.5161 79.4198 11.8929 79.4198 11.2034C79.4198 11.0321 79.4027 10.863 79.3684 10.7002C79.2057 9.8908 78.6468 9.22056 77.8995 8.90579ZM27.1415 8.90579C26.8438 8.77945 26.5162 8.70878 26.1715 8.70878C25.8267 8.70878 25.4991 8.77945 25.2014 8.90579C24.4563 9.22056 23.8952 9.8908 23.7282 10.7024C23.6961 10.8651 23.6768 11.0321 23.6768 11.2056C23.6768 12.5846 24.7924 13.7002 26.1693 13.7002C27.5462 13.7002 28.664 12.5824 28.664 11.2056C28.664 11.0343 28.6468 10.8651 28.6126 10.7024C28.4498 9.8908 27.8888 9.22056 27.1415 8.90579Z" fill="#649A3D"/>
</svg>
