<svg width="130" height="130" viewBox="0 0 130 130" fill="none" xmlns="http://www.w3.org/2000/svg">
    <path fill-rule="evenodd" clip-rule="evenodd"
          d="M22.9474 28.7415C15.7588 28.7415 9.78796 34.4995 9.78796 41.7778V57.4099C9.78796 64.6882 15.7588 70.4462 22.9474 70.4462H86.4603C92.9662 70.4462 98.4697 65.7341 99.4613 59.4422C99.5275 59.0221 99.3907 58.5954 99.0925 58.2921C98.7943 57.9888 98.37 57.8448 97.9488 57.9039C96.6904 58.0804 95.4035 58.1718 94.0941 58.1718C92.7864 58.1718 91.5011 58.0806 90.2442 57.9046C89.6887 57.8268 89.1433 58.1026 88.8768 58.5963C88.4347 59.4152 87.5465 60.0056 86.4603 60.0056H22.9474C21.3745 60.0056 20.2286 58.7726 20.2286 57.4099V41.7778C20.2286 40.4151 21.3745 39.1821 22.9474 39.1821H66.4164C66.826 39.1821 67.2132 38.9951 67.4679 38.6742C67.7225 38.3533 67.8167 37.9337 67.7237 37.5348C67.2757 35.6144 67.0388 33.6137 67.0388 31.5568C67.0388 31.0863 67.0512 30.6188 67.0757 30.1545C67.0951 29.7867 66.9625 29.4271 66.7091 29.16C66.4556 28.8928 66.1035 28.7415 65.7352 28.7415H22.9474ZM30.8865 44.3735C28.0034 44.3735 25.6662 46.7107 25.6662 49.5938C25.6662 52.4769 28.0034 54.8142 30.8865 54.8142H30.9254C33.8086 54.8142 36.1458 52.4769 36.1458 49.5938C36.1458 46.7107 33.8086 44.3735 30.9254 44.3735H30.8865ZM22.9474 75.6376C15.7588 75.6376 9.78796 81.3957 9.78796 88.674V104.306C9.78796 111.584 15.7588 117.342 22.9474 117.342H86.4603C93.6489 117.342 99.6198 111.584 99.6198 104.306V88.674C99.6198 81.3957 93.6489 75.6376 86.4603 75.6376H22.9474ZM20.2286 88.674C20.2286 87.3113 21.3745 86.0783 22.9474 86.0783H86.4603C88.0332 86.0783 89.1791 87.3113 89.1791 88.674V104.306C89.1791 105.669 88.0332 106.902 86.4603 106.902H22.9474C21.3745 106.902 20.2286 105.669 20.2286 104.306V88.674ZM30.8865 91.2697C28.0034 91.2697 25.6662 93.6069 25.6662 96.49C25.6662 99.3731 28.0034 101.71 30.8865 101.71H30.9254C33.8086 101.71 36.1458 99.3731 36.1458 96.49C36.1458 93.6069 33.8086 91.2697 30.9254 91.2697H30.8865Z"
          fill="#498500"/>
    <path fill-rule="evenodd" clip-rule="evenodd"
          d="M71.4677 32.0077C71.4677 19.4562 81.8029 9.28113 94.5522 9.28113C100.675 9.28113 106.546 11.6755 110.875 15.9376C115.205 20.1997 117.637 25.9803 117.637 32.0077C117.637 38.0352 115.205 43.8158 110.875 48.0779C106.546 52.3399 100.675 54.7343 94.5522 54.7343C88.4298 54.7343 82.5581 52.3399 78.2289 48.0779C73.8998 43.8158 71.4677 38.0352 71.4677 32.0077ZM105.339 29.428C106.282 28.5837 106.352 27.1464 105.494 26.2176C104.636 25.2889 103.176 25.2204 102.233 26.0647L91.0895 36.0382L86.8712 32.2629C85.9278 31.4186 84.4678 31.487 83.6102 32.4158C82.7526 33.3445 82.8222 34.7818 83.7655 35.6261L89.5366 40.7913C90.4171 41.5793 91.7618 41.5793 92.6423 40.7913L105.339 29.428Z"
          fill="#498500"/>
</svg>
