<svg width="130" height="130" viewBox="0 0 130 130" fill="none" xmlns="http://www.w3.org/2000/svg">
    <path fill-rule="evenodd" clip-rule="evenodd"
          d="M25.6232 16.6232C28.5834 13.663 32.5983 12 36.7846 12H69.5231C71.2286 12 72.8643 12.6775 74.0703 13.8835L106.809 46.622C108.015 47.828 108.692 49.4637 108.692 51.1692V102.615C108.692 106.802 107.029 110.817 104.069 113.777C101.109 116.737 97.094 118.4 92.9077 118.4H36.7846C32.5983 118.4 28.5834 116.737 25.6232 113.777C22.663 110.817 21 106.802 21 102.615V27.7846C21 23.5983 22.663 19.5834 25.6232 16.6232ZM36.7846 24.8615C36.0094 24.8615 35.2659 25.1695 34.7177 25.7177C34.1695 26.2659 33.8615 27.0094 33.8615 27.7846V102.615C33.8615 103.391 34.1695 104.134 34.7177 104.682C35.2659 105.23 36.0094 105.538 36.7846 105.538H92.9077C93.6829 105.538 94.4264 105.23 94.9746 104.682C95.5228 104.134 95.8308 103.391 95.8308 102.615V56.9995H69.4087C66.301 56.9995 63.7818 54.4803 63.7818 51.3726V24.8615H36.7846ZM75.0356 33.0378L87.7435 45.7457H75.0356V33.0378ZM64.225 65.2C55.0433 65.2 47.6 72.6433 47.6 81.825C47.6 86.2342 49.3516 90.4629 52.4693 93.5807C55.5871 96.6984 59.8158 98.45 64.225 98.45C68.6342 98.45 72.8629 96.6984 75.9807 93.5807C79.0984 90.4629 80.85 86.2342 80.85 81.825C80.85 77.4158 79.0984 73.1871 75.9807 70.0694C72.8629 66.9516 68.6342 65.2 64.225 65.2ZM74.0752 76.2709C74.8472 77.1201 74.7846 78.4344 73.9354 79.2065L62.5057 89.5971C61.7131 90.3177 60.5026 90.3177 59.7099 89.5971L54.5146 84.8741C53.6654 84.102 53.6028 82.7877 54.3748 81.9385C55.1469 81.0892 56.4612 81.0267 57.3104 81.7987L61.1078 85.2509L71.1396 76.1311C71.9889 75.359 73.3032 75.4216 74.0752 76.2709Z"
          fill="#498500"/>
</svg>
