<svg width="130" height="130" viewBox="0 0 130 130" fill="none" xmlns="http://www.w3.org/2000/svg">
    <path fill-rule="evenodd" clip-rule="evenodd"
          d="M79.1259 32.9101C81.6728 30.3633 85.802 30.3633 88.3489 32.9101L116.299 60.8598C118.845 63.4066 118.845 67.5358 116.299 70.0827L88.3489 98.0323C85.802 100.579 81.6728 100.579 79.1259 98.0323C76.5791 95.4855 76.5791 91.3562 79.1259 88.8094L102.464 65.4712L79.1259 42.133C76.5791 39.5862 76.5791 35.457 79.1259 32.9101Z"
          fill="#498500"/>
    <path fill-rule="evenodd" clip-rule="evenodd"
          d="M51.0827 32.9101C53.6295 35.457 53.6295 39.5862 51.0827 42.133L27.7445 65.4712L51.0827 88.8094C53.6295 91.3562 53.6295 95.4855 51.0827 98.0323C48.5358 100.579 44.4066 100.579 41.8598 98.0323L13.9101 70.0827C11.3633 67.5358 11.3633 63.4066 13.9101 60.8598L41.8598 32.9101C44.4066 30.3633 48.5358 30.3633 51.0827 32.9101Z"
          fill="#498500"/>
</svg>
